<svg xmlns="http://www.w3.org/2000/svg" viewBox="0 0 635.853 252.04"><path d="M3375.73 879.16v158.42h70.82v72.2h-70.82v104.44h-73.59v-51.17c0-30.15-16.13-53.27-52.56-53.27h-17.53v-72.2h63.09V865.852c0-63.801 39.25-101.653 102.34-101.653 29.42 0 44.85 5.621 49.76 7.711v67.289c-3.5-.687-16.83-2.801-28.05-2.801-30.12 0-43.46 12.622-43.46 42.762M2581.74 864.488c0-65.238-57.39-108.929-142.76-108.929-92.01 0-153.82 49.332-153.82 122.82v5.031h81.74v-5.031c0-36.649 26.99-58.399 72.08-58.399 28.2 0 61.61 7.258 61.61 41.68 0 32.426-37.24 39.672-80.53 48.332-56.99 11.27-128.06 25.363-128.06 107.318 0 62.62 56.18 106.31 136.51 106.31 83.36 0 146.18-50.54 146.18-117.39v-5.03h-81.55v5.03c0 30.2-27.17 52.15-64.63 52.15-35.02 0-56.77-14.7-56.77-38.26 0-28.39 35.84-35.636 77.31-43.886 59-11.886 132.69-26.777 132.69-111.746M2836.43 833.672c-58.38 0-100.86 44.707-100.86 106.117 0 61.821 42.48 106.711 100.86 106.711 58.6 0 100.88-44.89 100.88-106.711 0-60.398-43.29-106.117-100.88-106.117zm136.92 228.738c-31.61 36.64-76.11 56.77-125.24 56.77-28.38 0-82.54-11.68-113.15-54.96v48.52h-78.53V596.289h80.54v214.84c27.78-36.848 80.94-50.938 109.13-50.938 107.92 0 172.55 91.61 172.55 180.204 0 44.296-16.5 88.785-45.3 122.015M3138.79 876.738c31.5 0 55.95-25.09 55.95-56.578 0-30.23-24.45-55.961-55.95-55.961-30.87 0-55.95 25.731-55.95 55.961 0 31.488 25.08 56.578 55.95 56.578M3681.07 1049.32c48.13 0 82.36-28.79 86.17-71.886h-173.15c8.06 43.096 42.49 71.886 86.98 71.886zm0 71.47c-98.66 0-175.97-79.53-175.97-181.001 0-103.687 78.73-181.82 183.02-181.82 73.89 0 138.12 42.89 156.64 104.5l.81 2.621-69.26 23.762-1.01-2.821c-15.5-46.109-56.58-55.769-88.39-55.769-44.9 0-94.03 31.808-97.24 83.355h259.93l.4 2.617c1.41 8.457 1.41 16.504 1.41 24.161 0 109.725-66.85 180.395-170.34 180.395M4253.69 876.16l-.8-2.82c-23.15-79.32-99.46-114.762-164.9-114.762-103.69 0-181.81 77.922-181.81 181.211 0 101.471 80.54 181.001 183.02 181.001 91.4 0 147.99-58.38 161.87-112.75l.61-2.81-75.1-24.972-.81 3.015c-4.22 14.504-22.74 62.217-87.18 62.217-56.77 0-97.85-43.88-97.85-104.49 0-61.82 41.48-106.918 98.46-106.918 56.57 0 77.31 36.438 87.99 63.625l1 2.617 75.5-24.164M4635.04 979.047V764.422h-82.55v195.297c0 52.351-26.58 82.551-72.89 82.551-46.11 0-76.11-33.02-76.11-83.957V764.422h-82.54v529.528h82.54v-218.46c34.63 39.27 77.11 45.3 99.87 45.3 81.35 0 131.68-54.36 131.68-141.743M1418.13 999.152c-26.47 0-43.12-15.379-43.12-46.98V890.25h86.27v61.922c0 31.601-17.1 46.98-43.15 46.98" style="fill-opacity:1;fill-rule:nonzero;stroke:none" transform="matrix(.13333 0 0 -.13333 0 252.04)"/><path d="M1316.92 829.18v125.55c0 64.07 37.6 106.36 100.37 106.36 62.78 0 102.06-42.29 102.06-106.36v-64.48h96.54v-61.07ZM998.25 308.93c-87.547 0-123.426 49.558-130.242 101.211H929.5c8.117-29.461 26.047-44.403 68.32-44.403 34.6 0 52.53 12.801 52.53 34.16 0 22.204-20.93 25.211-73.448 36.723-53.386 11.117-101.218 28.617-101.218 87.559 0 62.8 55.945 93.949 112.742 93.949 80.294 0 113.604-43.117 120.444-92.668h-61.93c-6.4 20.937-21.35 35.859-58.085 35.859-36.296 0-51.679-15.351-51.679-34.59 0-17.5 14.953-21.761 54.238-30.3 79.886-17.11 120.436-34.61 120.436-93.961 0-69.641-63.2-93.539-113.6-93.539zM752.449 945.121c0 130.959 106.524 237.479 237.481 237.479v-70.71c-91.961 0-166.766-74.82-166.766-166.769zM989.93 1801.23c-472.813 0-856.102-383.29-856.102-856.109 0-472.812 383.289-856.101 856.102-856.101 472.81 0 856.1 383.289 856.1 856.101 0 472.819-383.29 856.109-856.1 856.109" style="fill-opacity:1;fill-rule:nonzero;stroke:none" transform="matrix(.13333 0 0 -.13333 0 252.04)"/></svg>